<svg id="battery" xmlns="http://www.w3.org/2000/svg" viewBox="0 0 325.31 631.99"><defs><style>.cls-1{fill:#85c443;}</style></defs><title>battery</title><rect id="_availableCharge_" data-name="&lt;availableCharge&gt;" class="cls-1" x="16.72" y="80.05" width="289.1" height="511.16"/><path id="_batteryBorder_" data-name="&lt;batteryBorder&gt;" d="M368.71,139c21.37,0,42.34-.14,63.31,0,21.34,0.18,26.26,5.33,26.26,27q0.06,185.28.07,370.56,0,85,0,170.09c0,19.64-5.59,25.34-24.75,25.35q-138.58.09-277.16,0c-17.48,0-23.3-5.72-23.31-23.66q-0.11-272.66,0-545.31c0-18.06,6.06-23.81,24.74-24,21.49-.18,43,0,64.86,0,0.76-6.86.87-12.35,2-17.61,3-13.19,10.57-21.33,25-21.32,30.63,0,61.26-.14,91.89,0,14.07,0.07,22.41,7.57,25,21.25C367.73,126.76,368,132.22,368.71,139Zm59.6,296.49q0-116,0-232c0-18.76-4.63-23.31-23-23.3q-107.74.1-215.47,0.27c-24.64.05-26.66,2.17-26.67,26.59q0,227.52,0,455c0,26.89,2.74,29.45,29.12,29.4q104.71-.2,209.42,0c22.81,0.06,26.6-3.1,26.61-25.56Q428.35,550.69,428.31,435.5Z" transform="translate(-133.07 -100.12)"/></svg>