<?xml version="1.0" encoding="utf-8"?>
<!-- Generator: Adobe Illustrator 20.1.0, SVG Export Plug-In . SVG Version: 6.00 Build 0)  -->
<svg version="1.1" id="battery" xmlns="http://www.w3.org/2000/svg" xmlns:xlink="http://www.w3.org/1999/xlink" x="0px" y="0px"
	 viewBox="0 0 325.3 632" style="enable-background:new 0 0 325.3 632;" xml:space="preserve">
<style type="text/css">
	.st0{fill:#85C443;}
	.st1{fill:#141414;}
</style>
<title>battery</title>
<rect id="_availableCharge_" x="16.7" y="80" class="st0" width="289.1" height="511.2"/>
<path id="_batteryBorder_" class="st1" d="M235.6,38.9c21.4,0,42.3-0.1,63.3,0c21.3,0.2,26.3,5.3,26.3,27c0,123.5,0.1,247,0.1,370.6
	c0,56.7,0,113.4,0,170.1c0,19.6-5.6,25.3-24.8,25.3c-92.4,0.1-184.8,0.1-277.2,0c-17.5,0-23.3-5.7-23.3-23.7
	C0,426.4,0,244.7,0.1,62.9c0-18.1,6.1-23.8,24.7-24c21.5-0.2,43,0,64.9,0c0.8-6.9,0.9-12.3,2-17.6c3-13.2,10.6-21.3,25-21.3
	c30.6,0,61.3-0.1,91.9,0c14.1,0.1,22.4,7.6,25,21.2C234.7,26.6,234.9,32.1,235.6,38.9z M295.2,335.4c0-77.3,0-154.7,0-232
	c0-18.8-4.6-23.3-23-23.3c-71.8,0.1-143.6,0.2-215.5,0.3c-24.6,0.1-26.7,2.2-26.7,26.6c0,151.7,0,303.3,0,455
	c0,26.9,2.7,29.5,29.1,29.4c69.8-0.1,139.6-0.1,209.4,0c22.8,0.1,26.6-3.1,26.6-25.6C295.3,489,295.3,412.2,295.2,335.4L295.2,335.4
	z"/>
</svg>
